<svg width="20" height="8" viewBox="0 0 20 8" fill="none" xmlns="http://www.w3.org/2000/svg">
<path d="M12.043 0.0928939C11.6451 0.271479 11.645 0.836323 12.0428 1.0151L17.6487 3.5346L0.392735 3.5346C0.175834 3.5346 -2.99816e-07 3.71043 -2.84124e-07 3.92733V3.92733C-2.68432e-07 4.14423 0.175833 4.32007 0.392734 4.32007L17.6487 4.32007L12.0428 6.83956C11.645 7.01834 11.6451 7.58319 12.043 7.76177V7.76177C12.1747 7.82087 12.3253 7.82087 12.457 7.76177L18.9674 4.83965C19.7547 4.48625 19.7547 3.36841 18.9674 3.01502L12.457 0.0928939C12.3253 0.0337984 12.1747 0.0337984 12.043 0.0928939V0.0928939Z" fill="black"/>
</svg>
